<svg xmlns="http://www.w3.org/2000/svg" viewBox="0 10.079999923706055 176.7100067138672 38.98999786376953" data-asc="0.78125" width="176.7100067138672" height="38.98999786376953"><defs/><g fill="#000000"><g transform="translate(0, 0)"><path d="M14.40 10.08Q19.56 10.08 22.31 12.35Q25.07 14.62 25.07 18.95Q25.07 24.58 19.02 26.05Q20.34 26.56 21.12 27.56Q21.63 28.22 22.06 28.94Q22.49 29.66 23.05 30.76Q23.63 31.93 23.95 32.45Q24.44 33.25 24.93 33.65Q25.42 34.06 26.03 34.06L26.49 34.06Q27.08 34.06 27.39 34.27Q27.71 34.47 27.87 35.01Q28.03 35.55 28.03 36.57Q28.03 37.60 27.87 38.13Q27.71 38.67 27.39 38.87Q27.08 39.06 26.49 39.06L24.12 39.06Q22.19 39.06 21.00 38.28Q19.80 37.50 18.80 35.67Q18.31 34.81 17.63 33.33Q17.14 32.20 16.70 31.38Q16.26 30.57 15.72 29.79Q14.97 28.74 14.04 28.27Q13.11 27.81 11.82 27.81L10.25 27.81L10.25 34.06L12.62 34.06Q13.21 34.06 13.53 34.27Q13.84 34.47 14.00 35.01Q14.16 35.55 14.16 36.57Q14.16 37.60 14.00 38.13Q13.84 38.67 13.53 38.87Q13.21 39.06 12.62 39.06L1.54 39.06Q0.95 39.06 0.63 38.87Q0.32 38.67 0.16 38.13Q0 37.60 0 36.57Q0 35.55 0.16 35.01Q0.32 34.47 0.63 34.27Q0.95 34.06 1.54 34.06L4.15 34.06L4.15 15.09L1.54 15.09Q0.95 15.09 0.63 14.89Q0.32 14.70 0.16 14.16Q0 13.62 0 12.60Q0 11.57 0.16 11.04Q0.32 10.50 0.63 10.29Q0.95 10.08 1.54 10.08L14.40 10.08M10.25 22.56L13.89 22.56Q16.38 22.56 17.58 21.67Q18.77 20.78 18.77 18.95Q18.77 17.11 17.58 16.22Q16.38 15.33 13.89 15.33L10.25 15.33L10.25 22.56ZM51.15 15.97Q53.22 15.97 55.05 17.33Q56.13 18.12 56.13 19.38Q56.13 20.19 55.69 21.29Q55.25 22.39 54.70 22.95Q54.15 23.51 53.54 23.51Q53.20 23.51 52.81 23.32Q51.44 22.56 49.98 22.56Q48.10 22.56 46.46 23.75Q44.82 24.95 43.84 27.05Q42.85 29.15 42.85 31.74L42.85 34.06L49.85 34.06Q50.44 34.06 50.76 34.27Q51.07 34.47 51.23 35.01Q51.39 35.55 51.39 36.57Q51.39 37.60 51.23 38.13Q51.07 38.67 50.76 38.87Q50.44 39.06 49.85 39.06L33.15 39.06Q32.57 39.06 32.25 38.87Q31.93 38.67 31.77 38.13Q31.62 37.60 31.62 36.57Q31.62 35.55 31.77 35.01Q31.93 34.47 32.25 34.27Q32.57 34.06 33.15 34.06L36.74 34.06L36.74 21.51L33.89 21.51Q33.30 21.51 32.98 21.31Q32.67 21.12 32.51 20.58Q32.35 20.04 32.35 19.02Q32.35 17.99 32.51 17.46Q32.67 16.92 32.98 16.71Q33.30 16.50 33.89 16.50L40.58 16.50Q41.41 16.50 41.76 16.86Q42.11 17.21 42.11 18.04L42.11 23.34Q43.95 19.80 46.33 17.88Q48.71 15.97 51.15 15.97ZM73.83 15.97Q77.54 15.97 80.15 17.57Q82.76 19.17 84.09 22.01Q85.42 24.85 85.42 28.52Q85.42 29.35 85.07 29.69Q84.72 30.03 83.89 30.03L68.21 30.03Q68.68 31.98 70.20 33.02Q71.73 34.06 74.07 34.06Q77.86 34.06 82.28 32.71Q82.57 32.62 82.86 32.62Q83.40 32.62 83.79 33.11Q84.18 33.59 84.50 34.77Q84.74 35.67 84.74 36.30Q84.74 36.94 84.46 37.29Q84.18 37.65 83.54 37.87Q81.10 38.67 78.56 39.14Q76.03 39.60 73.58 39.60Q69.87 39.60 67.19 38.09Q64.50 36.57 63.10 33.90Q61.69 31.23 61.69 27.78Q61.69 24.37 63.16 21.68Q64.62 18.99 67.38 17.48Q70.14 15.97 73.83 15.97M73.83 21.51Q69.36 21.51 68.31 25.27L79.05 25.27Q78.64 23.49 77.28 22.50Q75.93 21.51 73.83 21.51ZM101.37 15.97Q103.69 15.97 105.59 16.94Q107.50 17.92 108.76 19.75L108.76 18.04Q108.76 17.21 109.12 16.86Q109.47 16.50 110.30 16.50L116.02 16.50Q116.60 16.50 116.92 16.71Q117.24 16.92 117.40 17.46Q117.55 17.99 117.55 19.02Q117.55 20.04 117.40 20.58Q117.24 21.12 116.92 21.31Q116.60 21.51 116.02 21.51L113.89 21.51L113.89 39.04Q113.89 43.82 111.02 46.45Q108.15 49.07 102.44 49.07Q100.34 49.07 97.85 48.67Q95.36 48.27 93.09 47.56Q91.92 47.19 91.92 45.87Q91.92 45.29 92.24 44.17Q92.60 43.02 93.05 42.50Q93.51 41.99 94.12 41.99Q94.43 41.99 94.70 42.09Q99.37 43.53 102.20 43.53Q105.15 43.53 106.47 42.30Q107.79 41.06 107.79 38.55L107.79 36.06Q106.54 37.40 104.91 38.13Q103.27 38.87 101.37 38.87Q98.22 38.87 95.83 37.39Q93.43 35.91 92.14 33.31Q90.84 30.71 90.84 27.42Q90.84 24.12 92.14 21.52Q93.43 18.92 95.83 17.44Q98.22 15.97 101.37 15.97M102.34 21.51Q100.07 21.51 98.73 23.06Q97.39 24.61 97.39 27.42Q97.39 30.22 98.73 31.77Q100.07 33.33 102.34 33.33Q103.91 33.33 105.19 32.65Q106.47 31.98 107.21 30.65Q107.96 29.32 107.96 27.42Q107.96 25.51 107.21 24.18Q106.47 22.85 105.19 22.18Q103.91 21.51 102.34 21.51ZM133.79 15.97Q137.50 15.97 140.11 17.57Q142.72 19.17 144.06 22.01Q145.39 24.85 145.39 28.52Q145.39 29.35 145.03 29.69Q144.68 30.03 143.85 30.03L128.17 30.03Q128.64 31.98 130.16 33.02Q131.69 34.06 134.03 34.06Q137.82 34.06 142.24 32.71Q142.53 32.62 142.82 32.62Q143.36 32.62 143.75 33.11Q144.14 33.59 144.46 34.77Q144.70 35.67 144.70 36.30Q144.70 36.94 144.42 37.29Q144.14 37.65 143.51 37.87Q141.06 38.67 138.53 39.14Q135.99 39.60 133.54 39.60Q129.83 39.60 127.15 38.09Q124.46 36.57 123.06 33.90Q121.66 31.23 121.66 27.78Q121.66 24.37 123.12 21.68Q124.58 18.99 127.34 17.48Q130.10 15.97 133.79 15.97M133.79 21.51Q129.32 21.51 128.27 25.27L139.01 25.27Q138.60 23.49 137.24 22.50Q135.89 21.51 133.79 21.51ZM174.93 16.50Q175.51 16.50 175.83 16.71Q176.15 16.92 176.31 17.46Q176.46 17.99 176.46 19.02Q176.46 20.04 176.31 20.58Q176.15 21.12 175.83 21.31Q175.51 21.51 174.93 21.51L173.49 21.51L167.60 27.64L173.93 34.06L175.17 34.06Q175.76 34.06 176.07 34.27Q176.39 34.47 176.55 35.01Q176.71 35.55 176.71 36.57Q176.71 37.60 176.55 38.13Q176.39 38.67 176.07 38.87Q175.76 39.06 175.17 39.06L165.80 39.06Q165.21 39.06 164.89 38.87Q164.58 38.67 164.42 38.13Q164.26 37.60 164.26 36.57Q164.26 35.55 164.42 35.01Q164.58 34.47 164.89 34.27Q165.21 34.06 165.80 34.06L166.14 34.06L162.94 30.79L159.91 34.06L160.33 34.06Q160.91 34.06 161.23 34.27Q161.55 34.47 161.71 35.01Q161.87 35.55 161.87 36.57Q161.87 37.60 161.71 38.13Q161.55 38.67 161.23 38.87Q160.91 39.06 160.33 39.06L151.68 39.06Q151.10 39.06 150.78 38.87Q150.46 38.67 150.31 38.13Q150.15 37.60 150.15 36.57Q150.15 35.55 150.31 35.01Q150.46 34.47 150.78 34.27Q151.10 34.06 151.68 34.06L153.00 34.06L159.20 27.61L153.20 21.51L151.93 21.51Q151.34 21.51 151.03 21.31Q150.71 21.12 150.55 20.58Q150.39 20.04 150.39 19.02Q150.39 17.99 150.55 17.46Q150.71 16.92 151.03 16.71Q151.34 16.50 151.93 16.50L161.06 16.50Q161.65 16.50 161.96 16.71Q162.28 16.92 162.44 17.46Q162.60 17.99 162.60 19.02Q162.60 20.04 162.44 20.58Q162.28 21.12 161.96 21.31Q161.65 21.51 161.06 21.51L160.74 21.51L163.87 24.71L166.82 21.51L166.28 21.51Q165.70 21.51 165.38 21.31Q165.06 21.12 164.90 20.58Q164.75 20.04 164.75 19.02Q164.75 17.99 164.90 17.46Q165.06 16.92 165.38 16.71Q165.70 16.50 166.28 16.50L174.93 16.50Z"/></g></g></svg>