<svg xmlns="http://www.w3.org/2000/svg" viewBox="0 4.909999847412109 78.70999908447266 42.939998626708984" data-asc="0.78125" width="78.70999908447266" height="42.939998626708984"><defs/><g fill="#000000"><g transform="translate(0, 0)"><path d="M3.81 5.49Q7.20 7.42 10.02 10.33Q12.84 13.23 14.60 17.31Q16.36 21.39 16.36 26.39Q16.36 31.40 14.60 35.47Q12.84 39.55 10.02 42.46Q7.20 45.36 3.81 47.29Q3.47 47.49 3.13 47.49Q2.56 47.49 1.97 47.03Q1.37 46.58 0.88 45.83Q0 44.51 0 43.51Q0 42.85 0.44 42.55Q5.32 39.50 7.81 35.56Q10.30 31.62 10.30 26.39Q10.30 21.17 7.81 17.22Q5.32 13.28 0.44 10.23Q0 9.94 0 9.28Q0 8.28 0.88 6.96Q1.37 6.20 1.97 5.75Q2.56 5.30 3.13 5.30Q3.47 5.30 3.81 5.49ZM37.62 9.55Q39.01 9.55 39.78 10.29Q40.55 11.04 40.55 12.18Q40.55 12.60 40.45 12.96L39.31 17.94L43.68 15.31Q44.46 14.82 45.29 14.82Q46.12 14.82 46.79 15.36Q47.46 15.89 47.80 16.94Q48.00 17.60 48.00 18.09Q48.00 19.19 47.29 19.87Q46.58 20.56 45.43 20.68L40.36 21.14L44.21 24.49Q44.73 24.95 45.01 25.50Q45.29 26.05 45.29 26.61Q45.29 27.93 43.95 28.93Q43.02 29.61 42.07 29.61Q41.28 29.61 40.64 29.14Q39.99 28.66 39.65 27.83L37.62 23.12L35.60 27.83Q35.25 28.66 34.61 29.14Q33.96 29.61 33.18 29.61Q32.23 29.61 31.30 28.93Q29.96 27.93 29.96 26.61Q29.96 26.05 30.24 25.50Q30.52 24.95 31.03 24.49L34.89 21.14L29.81 20.68Q28.66 20.56 27.95 19.87Q27.25 19.19 27.25 18.09Q27.25 17.60 27.44 16.94Q27.78 15.89 28.45 15.36Q29.13 14.82 29.96 14.82Q30.79 14.82 31.57 15.31L35.94 17.94L34.79 12.96Q34.69 12.60 34.69 12.18Q34.69 11.04 35.46 10.29Q36.23 9.55 37.62 9.55ZM74.85 4.91Q76.49 4.91 77.60 5.44Q78.71 5.98 78.71 6.81Q78.71 7.08 78.61 7.30L62.35 46.80Q61.91 47.85 60.35 47.85Q58.72 47.85 57.60 47.31Q56.49 46.78 56.49 45.95Q56.49 45.68 56.59 45.46L72.85 5.96Q73.29 4.91 74.85 4.91Z"/></g></g></svg>