<svg xmlns="http://www.w3.org/2000/svg" viewBox="0 4.909999847412109 48.72999954223633 42.939998626708984" data-asc="0.78125" width="48.72999954223633" height="42.939998626708984"><defs/><g fill="#000000"><g transform="translate(0, 0)"><path d="M18.36 4.91Q20.00 4.91 21.11 5.44Q22.22 5.98 22.22 6.81Q22.22 7.08 22.12 7.30L5.86 46.80Q5.42 47.85 3.86 47.85Q2.22 47.85 1.11 47.31Q0 46.78 0 45.95Q0 45.68 0.10 45.46L16.36 5.96Q16.80 4.91 18.36 4.91ZM44.92 5.49Q45.26 5.30 45.61 5.30Q46.17 5.30 46.77 5.75Q47.36 6.20 47.85 6.96Q48.73 8.28 48.73 9.28Q48.73 9.94 48.29 10.23Q43.41 13.28 40.92 17.22Q38.43 21.17 38.43 26.39Q38.43 31.62 40.92 35.56Q43.41 39.50 48.29 42.55Q48.73 42.85 48.73 43.51Q48.73 44.51 47.85 45.83Q47.36 46.58 46.77 47.03Q46.17 47.49 45.61 47.49Q45.26 47.49 44.92 47.29Q41.53 45.36 38.71 42.46Q35.89 39.55 34.13 35.47Q32.37 31.40 32.37 26.39Q32.37 21.39 34.13 17.31Q35.89 13.23 38.71 10.33Q41.53 7.42 44.92 5.49Z"/></g></g></svg>